<svg xmlns="http://www.w3.org/2000/svg" xmlns:xlink="http://www.w3.org/1999/xlink" width="500" zoomAndPan="magnify" viewBox="0 0 375 374.999991" height="500" preserveAspectRatio="xMidYMid meet" version="1.0"><defs><filter x="0%" y="0%" width="100%" height="100%" id="17e5bf16f1"><feColorMatrix values="0 0 0 0 1 0 0 0 0 1 0 0 0 0 1 0 0 0 1 0" color-interpolation-filters="sRGB"/></filter><g/><clipPath id="4286c9ead9"><path d="M 97.457031 26.984375 L 277.542969 26.984375 L 277.542969 348 L 97.457031 348 Z M 97.457031 26.984375 " clip-rule="nonzero"/></clipPath><clipPath id="c3c7fa3b56"><path d="M 157.519531 344.339844 C 166.75 346.558594 177.246094 348.015625 187.546875 348.015625 C 197.851562 348.015625 207.765625 346.765625 216.898438 344.546875 C 217.09375 344.476562 217.289062 344.476562 217.480469 344.410156 C 251.789062 335.527344 277.058594 312.074219 277.542969 281.015625 L 277.542969 26.984375 L 97.457031 26.984375 L 97.457031 280.828125 C 97.941406 312.210938 122.820312 335.664062 157.519531 344.339844 Z M 157.519531 344.339844 " clip-rule="nonzero"/></clipPath><mask id="3b5de420a2"><g filter="url(#17e5bf16f1)"><rect x="-37.5" width="450" fill="#000000" y="-37.499999" height="449.999989" fill-opacity="0.83"/></g></mask><clipPath id="46605c0166"><path d="M 0.3125 0.570312 L 274.867188 0.570312 L 274.867188 71.925781 L 0.3125 71.925781 Z M 0.3125 0.570312 " clip-rule="nonzero"/></clipPath><clipPath id="768bf36574"><path d="M 137.5 0.570312 C 61.734375 0.570312 0.3125 16.542969 0.3125 36.246094 C 0.3125 55.953125 61.734375 71.925781 137.5 71.925781 C 213.265625 71.925781 274.6875 55.953125 274.6875 36.246094 C 274.6875 16.542969 213.265625 0.570312 137.5 0.570312 Z M 137.5 0.570312 " clip-rule="nonzero"/></clipPath><clipPath id="50720f27f2"><rect x="0" width="275" y="0" height="73"/></clipPath><clipPath id="d5bc2c67ec"><path d="M 69.410156 82.945312 L 305.660156 82.945312 L 305.660156 254 L 69.410156 254 Z M 69.410156 82.945312 " clip-rule="nonzero"/></clipPath></defs><g clip-path="url(#4286c9ead9)"><g clip-path="url(#c3c7fa3b56)"><path fill="#daeaea" d="M 97.457031 26.984375 L 277.542969 26.984375 L 277.542969 347.765625 L 97.457031 347.765625 Z M 97.457031 26.984375 " fill-opacity="1" fill-rule="nonzero"/></g></g><g mask="url(#3b5de420a2)"><g transform="matrix(1, 0, 0, 1, 50, 200)"><g clip-path="url(#50720f27f2)"><g clip-path="url(#46605c0166)"><g clip-path="url(#768bf36574)"><path fill="#c9e1e0" d="M 0.3125 0.570312 L 274.589844 0.570312 L 274.589844 71.925781 L 0.3125 71.925781 Z M 0.3125 0.570312 " fill-opacity="1" fill-rule="nonzero"/></g></g></g></g></g><g clip-path="url(#d5bc2c67ec)"><path fill="#ffffff" d="M 298.15625 211.695312 C 291.300781 225.453125 281.027344 235.429688 266.070312 240.019531 C 259.035156 242.179688 251.90625 241.839844 244.777344 240.460938 C 244.507812 240.40625 244.253906 240.242188 243.925781 240.101562 C 266.570312 223.683594 280.171875 201.773438 284.609375 174.175781 C 292.152344 175.996094 298.621094 173.519531 304.875 169.230469 C 305.011719 170.988281 305.214844 172.609375 305.25 174.230469 C 305.550781 187.21875 304.042969 199.890625 298.15625 211.695312 Z M 90.25 174.160156 C 82.5625 176.023438 75.921875 173.640625 69.539062 169.140625 C 69.480469 178.003906 70.132812 186.515625 72.070312 194.878906 C 75.753906 210.789062 83.460938 224.109375 97.144531 233.566406 C 105.765625 239.523438 115.191406 242.417969 125.707031 241.25 C 127.738281 241.023438 129.746094 240.566406 132.136719 240.148438 C 109.5 223.273438 94.6875 201.980469 90.25 174.160156 Z M 280.554688 143.839844 C 273.148438 151.015625 264.378906 154.410156 254.28125 154.933594 C 254.28125 155.785156 254.359375 156.503906 254.269531 157.203125 C 253.519531 163.058594 253.121094 168.992188 251.894531 174.746094 C 249.257812 187.085938 243.277344 197.78125 234.714844 207.027344 C 233.382812 208.464844 231.835938 209.707031 230.386719 211.039062 C 230.226562 210.910156 230.0625 210.78125 229.902344 210.652344 C 253.65625 182.460938 258.558594 151.859375 241.847656 118.28125 C 236.191406 125.6875 228.847656 130.605469 220.488281 134.476562 C 220.105469 128.335938 218.078125 122.890625 215.402344 117.644531 C 209.914062 106.878906 202.351562 97.664062 193.972656 89.070312 C 191.90625 86.949219 189.691406 84.96875 187.566406 82.945312 C 186.796875 83.785156 185.957031 84.714844 185.097656 85.632812 C 177.894531 93.320312 170.863281 101.160156 165.070312 110 C 160.375 117.160156 155.886719 124.429688 155.320312 133.546875 C 147.0625 129.703125 139.824219 124.75 134 117.691406 C 132.863281 120.199219 131.828125 122.539062 130.75 124.859375 C 123.839844 139.695312 121.195312 154.988281 125.207031 171.183594 C 128.1875 183.226562 133.703125 193.855469 141.882812 203.125 C 145.40625 207.117188 149.113281 210.949219 152.605469 214.964844 C 154.46875 217.113281 156.054688 219.5 157.765625 221.78125 C 150.890625 214.703125 143.796875 207.816406 137.195312 200.492188 C 129.425781 191.867188 124.714844 181.542969 122.402344 170.203125 C 121.367188 165.140625 120.84375 159.972656 120.066406 154.699219 C 115.566406 154.332031 110.871094 153.367188 106.386719 151.484375 C 101.902344 149.597656 97.835938 147.046875 94.171875 143.75 C 82.53125 191.433594 118.925781 241.832031 163.023438 250.851562 C 162.296875 251.199219 161.824219 251.429688 161.167969 251.746094 C 166.664062 254.085938 179.042969 254.125 182.179688 251.953125 C 180.144531 250.796875 178.136719 249.660156 176.128906 248.519531 C 176.183594 248.351562 176.238281 248.1875 176.289062 248.023438 C 185.957031 249.363281 195.570312 248.378906 205.226562 247.832031 L 205.46875 248.050781 L 205.410156 248.378906 C 202.824219 249.582031 200.453125 250.683594 197.855469 251.894531 C 202.304688 254.773438 218.925781 253.605469 221.644531 250.476562 C 221.378906 250 221.105469 249.507812 220.84375 249.035156 C 242.578125 241.332031 259.121094 227.375 270.386719 207.605469 C 281.65625 187.832031 285.398438 166.550781 280.554688 143.839844 Z M 280.554688 143.839844 " fill-opacity="1" fill-rule="nonzero"/><path fill="#12706d" d="M 157.765625 221.78125 C 156.054688 219.5 154.46875 217.113281 152.605469 214.964844 C 149.113281 210.949219 145.40625 207.117188 141.882812 203.125 C 133.703125 193.855469 128.1875 183.226562 125.207031 171.183594 C 121.195312 154.988281 123.839844 139.695312 130.75 124.859375 C 131.828125 122.539062 132.863281 120.199219 134 117.691406 C 139.824219 124.75 147.0625 129.703125 155.320312 133.546875 C 155.886719 124.429688 160.375 117.160156 165.070312 110 C 170.863281 101.160156 177.894531 93.320312 185.097656 85.632812 C 185.957031 84.714844 186.796875 83.785156 187.566406 82.945312 C 189.691406 84.96875 191.90625 86.949219 193.972656 89.070312 C 202.351562 97.664062 209.914062 106.878906 215.402344 117.644531 C 218.078125 122.890625 220.105469 128.335938 220.488281 134.476562 C 228.847656 130.605469 236.191406 125.6875 241.847656 118.28125 C 258.558594 151.859375 253.65625 182.460938 229.902344 210.652344 C 230.0625 210.78125 230.226562 210.910156 230.386719 211.039062 C 231.835938 209.707031 233.382812 208.464844 234.714844 207.027344 C 243.277344 197.78125 249.257812 187.085938 251.894531 174.746094 C 253.121094 168.992188 253.519531 163.058594 254.269531 157.203125 C 254.359375 156.503906 254.28125 155.785156 254.28125 154.933594 C 264.378906 154.410156 273.148438 151.015625 280.554688 143.839844 C 285.398438 166.550781 281.65625 187.832031 270.386719 207.605469 C 259.121094 227.375 242.578125 241.332031 220.84375 249.035156 C 221.105469 249.507812 221.378906 250 221.644531 250.476562 C 218.925781 253.605469 202.304688 254.773438 197.855469 251.894531 C 200.453125 250.683594 202.824219 249.582031 205.410156 248.378906 C 205.410156 249.476562 205.410156 250.339844 205.410156 251.25 C 209.175781 249.820312 210.773438 247.566406 210.777344 243.820312 C 210.785156 235.078125 210.667969 226.332031 210.863281 217.59375 C 210.945312 213.824219 211.675781 210.070312 212.113281 206.3125 C 212.277344 206.328125 212.4375 206.34375 212.601562 206.359375 C 212.601562 208.351562 212.554688 210.347656 212.609375 212.339844 C 212.832031 220.234375 212.964844 228.132812 213.394531 236.019531 C 213.554688 239.027344 214.25 242.042969 214.996094 244.980469 C 215.886719 248.492188 216.59375 248.890625 220.707031 249.164062 C 220.707031 247.246094 220.65625 245.34375 220.714844 243.441406 C 221.117188 230.8125 221.566406 218.183594 221.957031 205.550781 C 222.121094 200.144531 221.550781 194.816406 219.886719 189.636719 C 219.726562 189.132812 219.675781 188.574219 219.671875 188.039062 C 219.65625 184.578125 219.664062 181.113281 219.664062 177.652344 C 219.90625 177.632812 220.148438 177.613281 220.386719 177.59375 C 220.964844 180.015625 221.597656 182.425781 222.101562 184.859375 C 222.949219 188.929688 223.957031 192.988281 224.410156 197.105469 C 224.625 199.039062 223.992188 201.085938 224.835938 203.019531 C 224.953125 203.285156 225.085938 203.546875 225.210938 203.8125 C 226.796875 202.929688 227.542969 201.03125 227.328125 198.949219 C 227.042969 196.226562 227.023438 193.464844 226.601562 190.765625 C 225.582031 184.183594 224.46875 177.617188 223.257812 171.070312 C 222.359375 166.207031 218.726562 164.601562 214.347656 163.980469 C 213.109375 163.800781 211.898438 163.441406 210.425781 163.113281 C 210.839844 162.582031 210.941406 162.300781 211.109375 162.253906 C 213.132812 161.683594 214.417969 160.683594 213.566406 158.316406 C 213.527344 158.203125 213.78125 157.972656 213.917969 157.8125 C 215.957031 155.367188 214.683594 151.742188 211.554688 151.097656 C 211.332031 151.054688 210.953125 151.121094 210.894531 151.007812 C 209.496094 148.308594 207.382812 150.03125 205.984375 150.617188 C 204.640625 151.175781 203.78125 152.902344 202.714844 154.125 C 202.644531 154.207031 202.585938 154.359375 202.609375 154.457031 C 203.105469 156.667969 203.398438 158.960938 204.230469 161.039062 C 204.605469 161.984375 206.0625 162.496094 207.027344 163.203125 C 207.222656 163.121094 207.417969 163.042969 207.613281 162.964844 C 207.367188 163.304688 207.191406 163.777344 206.859375 163.960938 C 206.40625 164.210938 205.835938 164.265625 205.308594 164.355469 C 202.003906 164.921875 199.742188 166.816406 198.660156 169.933594 C 197.550781 173.128906 196.539062 176.375 195.71875 179.65625 C 194.292969 185.351562 191.917969 189.710938 188.332031 192.648438 C 186.832031 188.652344 185.34375 184.667969 183.84375 180.6875 C 183.570312 179.964844 183.253906 179.253906 182.945312 178.546875 C 181.851562 176.03125 180.289062 174.308594 177.210938 174.238281 C 175.605469 174.199219 173.699219 174.085938 172.976562 172.671875 C 173.929688 170.886719 174.675781 169.410156 175.5 167.980469 C 175.882812 167.324219 176.398438 166.738281 176.882812 166.144531 C 177.703125 165.136719 177.171875 164.441406 176.425781 163.707031 C 175.847656 163.132812 175.179688 162.53125 174.878906 161.808594 C 174.09375 159.925781 173.011719 159.027344 171.015625 158.941406 C 168.777344 158.847656 167.484375 159.632812 166.644531 161.589844 C 164.882812 165.714844 165.40625 168.347656 168.632812 171.605469 C 168.960938 171.9375 169.246094 172.308594 169.84375 173.003906 C 168.71875 173.402344 167.847656 173.785156 166.9375 174.011719 C 166.015625 174.238281 165.050781 174.285156 164.109375 174.453125 C 161.789062 174.871094 160.191406 175.976562 159.332031 178.386719 C 157.214844 184.335938 156.015625 190.449219 155.433594 196.707031 C 155.292969 198.195312 155.085938 199.675781 154.949219 201.160156 C 154.828125 202.515625 154.011719 203.953125 155.730469 205.066406 C 156.195312 205.367188 156.160156 206.492188 156.285156 207.253906 C 157.082031 212.128906 157.859375 217.011719 158.625 221.894531 C 158.640625 222.003906 158.4375 222.152344 158.335938 222.285156 C 158.144531 222.117188 157.953125 221.949219 157.765625 221.78125 Z M 137.195312 200.492188 C 129.425781 191.867188 124.714844 181.542969 122.402344 170.203125 C 121.367188 165.140625 120.84375 159.972656 120.066406 154.699219 C 115.566406 154.332031 110.871094 153.367188 106.386719 151.484375 C 101.902344 149.597656 97.835938 147.046875 94.171875 143.75 C 82.53125 191.433594 118.925781 241.832031 163.023438 250.851562 C 162.296875 251.199219 161.824219 251.429688 161.167969 251.746094 C 166.664062 254.085938 179.042969 254.125 182.179688 251.953125 C 180.144531 250.796875 178.136719 249.660156 176.128906 248.519531 C 176.183594 248.351562 176.238281 248.1875 176.289062 248.023438 C 186.027344 249.371094 195.707031 248.363281 205.433594 247.820312 C 205.398438 247.183594 205.445312 246.808594 205.355469 246.46875 C 202.964844 237.316406 201.394531 228.023438 200.9375 218.570312 C 200.566406 210.976562 200.011719 203.316406 201.800781 195.847656 C 203.25 189.800781 202.746094 183.957031 201.203125 177.648438 C 200.085938 185.371094 196.976562 191.519531 190.570312 195.496094 C 191.183594 196.378906 191.671875 197.082031 192.28125 197.957031 C 190.765625 198.722656 189.480469 199.375 188.195312 200.023438 C 188.113281 199.863281 188.035156 199.703125 187.953125 199.542969 C 188.277344 199.027344 188.597656 198.511719 188.960938 197.929688 C 188.503906 197.742188 188.121094 197.417969 187.859375 197.5 C 185.03125 198.382812 184.167969 196.210938 183.246094 194.421875 C 182.117188 192.230469 181.253906 189.910156 180.261719 187.609375 C 179.035156 192.175781 178.117188 196.785156 179.59375 201.480469 C 182.097656 209.433594 182.371094 217.589844 181.972656 225.8125 C 181.851562 228.304688 181.605469 230.792969 181.40625 233.382812 C 180.65625 233.382812 180.058594 233.421875 179.46875 233.375 C 178.578125 233.300781 178.289062 233.675781 178.082031 234.554688 C 177.183594 238.375 176.152344 242.160156 175.191406 245.964844 C 175.035156 246.574219 174.875 247.21875 174.910156 247.839844 C 174.96875 248.972656 175.171875 250.097656 175.328125 251.316406 C 173.359375 250.875 171.546875 248.746094 171.566406 247.609375 C 171.652344 243.066406 171.601562 238.523438 171.601562 233.902344 C 170.183594 233.902344 169.011719 233.902344 167.640625 233.902344 C 167.640625 238.175781 167.375 242.375 167.777344 246.511719 C 167.921875 248.042969 167.71875 248.984375 166.777344 249.898438 C 166.433594 250.230469 165.679688 250.542969 165.347656 250.382812 C 164.921875 250.175781 164.359375 249.277344 164.492188 249.035156 C 165.570312 247.121094 164.308594 245.480469 164.035156 243.734375 C 163.492188 240.214844 162.9375 236.699219 162.429688 233.4375 C 161.859375 232.898438 160.921875 232.40625 160.945312 231.96875 C 161.140625 228.429688 159.628906 225.394531 158.335938 222.285156 C 158.144531 222.117188 157.953125 221.949219 157.765625 221.78125 C 150.890625 214.703125 143.796875 207.816406 137.195312 200.492188 Z M 244.777344 240.460938 C 251.90625 241.839844 259.035156 242.179688 266.070312 240.019531 C 281.027344 235.429688 291.300781 225.453125 298.15625 211.695312 C 304.042969 199.890625 305.550781 187.21875 305.25 174.230469 C 305.214844 172.609375 305.011719 170.988281 304.875 169.230469 C 298.621094 173.519531 292.152344 175.996094 284.609375 174.175781 C 280.171875 201.773438 266.570312 223.683594 243.925781 240.101562 C 244.253906 240.242188 244.507812 240.40625 244.777344 240.460938 Z M 72.070312 194.878906 C 75.753906 210.789062 83.460938 224.109375 97.144531 233.566406 C 105.765625 239.523438 115.191406 242.417969 125.707031 241.25 C 127.738281 241.023438 129.746094 240.566406 132.136719 240.148438 C 109.5 223.273438 94.6875 201.980469 90.25 174.160156 C 82.5625 176.023438 75.921875 173.640625 69.539062 169.140625 C 69.480469 178.003906 70.132812 186.515625 72.070312 194.878906 Z M 157.640625 199.085938 C 157.511719 199.488281 157.734375 200.003906 157.796875 200.46875 C 158.003906 201.953125 158.214844 203.4375 158.488281 205.390625 C 157.820312 204.769531 157.613281 204.574219 157.3125 204.292969 C 158.21875 211.808594 158.769531 219.238281 161.003906 226.386719 C 161.144531 226.070312 161.164062 225.773438 161.140625 225.480469 C 160.59375 218 160.644531 210.546875 161.90625 203.128906 C 162.425781 200.09375 163.414062 197.121094 162.628906 193.949219 C 162.128906 191.933594 161.917969 189.847656 161.519531 187.421875 C 160.160156 191.480469 158.871094 195.273438 157.640625 199.085938 Z M 157.640625 199.085938 " fill-opacity="1" fill-rule="evenodd"/></g><path stroke-linecap="butt" transform="matrix(1.044966, 0, 0, 1.044966, 108.067586, 277.672453)" fill="none" stroke-linejoin="miter" d="M 20.442865 23.000342 L 20.442865 21.179858 L 11.08999 21.179858 L 11.08999 14.406313 L 20.162503 14.406313 L 20.162503 12.555925 L 11.08999 12.555925 L 11.08999 5.778641 L 20.442865 5.778641 L 20.442865 3.961896 L 9.131194 3.961896 L 9.131194 23.000342 Z M 26.913619 21.037808 L 26.913619 3.961896 L 24.951085 3.961896 L 24.951085 23.000342 L 33.713331 23.000342 L 33.713331 21.037808 Z M 51.469588 13.47925 C 51.469588 12.111084 51.189226 10.843847 50.680837 9.670065 C 50.176185 8.492545 49.477149 7.490718 48.609896 6.649633 C 47.716476 5.808547 46.677268 5.165583 45.499748 4.687099 C 44.29606 4.216091 43.013872 3.961896 41.664396 3.961896 L 36.68143 3.961896 L 36.68143 23.000342 L 41.664396 23.000342 C 43.013872 23.000342 44.29606 22.776052 45.499748 22.301306 C 46.677268 21.822822 47.716476 21.153691 48.609896 20.312605 C 49.477149 19.47152 50.176185 18.49586 50.680837 17.31834 C 51.189226 16.137081 51.469588 14.877322 51.469588 13.47925 Z M 49.559389 13.47925 C 49.559389 15.666073 48.781852 17.482819 47.264159 18.910796 C 45.753943 20.342511 43.907292 21.037808 41.720469 21.037808 L 38.643963 21.037808 L 38.643963 5.916953 L 41.720469 5.916953 C 43.907292 5.916953 45.753943 6.649633 47.264159 8.051442 C 48.781852 9.505586 49.559389 11.32607 49.559389 13.47925 Z M 66.448393 23.000342 L 66.448393 21.179858 L 57.095518 21.179858 L 57.095518 14.406313 L 66.168031 14.406313 L 66.168031 12.555925 L 57.095518 12.555925 L 57.095518 5.778641 L 66.448393 5.778641 L 66.448393 3.961896 L 55.132985 3.961896 L 55.132985 23.000342 Z M 72.915409 13.595133 L 72.915409 5.834714 L 77.337652 5.834714 C 78.489005 5.834714 79.408592 6.197315 80.115104 6.929995 C 80.784235 7.651459 81.146836 8.548618 81.146836 9.670065 C 81.146836 10.791513 80.784235 11.714839 80.051556 12.473685 C 79.326353 13.225055 78.432933 13.595133 77.337652 13.595133 Z M 83.10937 9.696233 C 83.10937 8.077609 82.492574 6.6758 81.318792 5.580519 C 80.167439 4.52262 78.739462 3.961896 77.05729 3.961896 L 70.952876 3.961896 L 70.952876 23.000342 L 72.915409 23.000342 L 72.915409 15.467951 L 75.184472 15.467951 L 80.784235 23.000342 L 83.415899 23.000342 L 77.535774 15.467951 C 79.019824 15.385711 80.279583 14.851154 81.318792 13.875495 C 82.492574 12.780214 83.10937 11.378404 83.10937 9.696233 Z M 101.616998 24.536726 L 106.03924 3.961896 L 104.050539 3.961896 L 101.082441 17.789348 L 95.374271 2.840448 L 89.632458 17.789348 L 86.694265 3.961896 L 84.675659 3.961896 L 89.127807 24.536726 L 95.374271 7.961727 Z M 110.689511 23.000342 L 110.689511 3.961896 L 108.726977 3.961896 L 108.726977 23.000342 Z M 120.457321 14.036236 C 122.924507 14.626865 124.599202 15.273566 125.503837 15.998769 C 126.116895 16.507159 126.427162 17.150123 126.427162 17.935136 C 126.427162 18.712673 126.255207 19.363113 125.918772 19.807954 C 125.077686 20.981736 123.56747 21.572365 121.444195 21.572365 C 118.46862 21.572365 116.793925 20.5668 116.423847 18.548194 L 114.136094 18.548194 C 114.805224 21.770488 117.238766 23.362944 121.444195 23.362944 C 123.317013 23.362944 124.879564 22.974175 126.1468 22.133089 C 127.657016 21.153691 128.44203 19.699547 128.44203 17.789348 C 128.44203 16.226797 127.821495 15.02311 126.591641 14.182024 C 125.72065 13.565228 124.31884 13.004504 122.393688 12.499852 C 120.431154 11.995201 119.171394 11.576527 118.584503 11.269998 C 117.2911 10.627034 116.651875 9.726138 116.678042 8.548618 C 116.678042 7.931821 116.793925 7.408479 117.074287 7.012234 C 117.79949 5.916953 119.089155 5.363706 120.935806 5.363706 C 123.541303 5.363706 125.025352 6.197315 125.414121 7.823415 L 127.54861 7.823415 C 126.842098 5.083344 124.636584 3.681534 120.935806 3.681534 C 119.253634 3.681534 117.773323 4.126375 116.53973 5.019795 C 115.276232 5.916953 114.633269 7.236524 114.633269 9.027102 C 114.633269 11.460644 116.595803 13.142816 120.457321 14.036236 Z M 142.886278 23.000342 L 142.886278 21.179858 L 133.537141 21.179858 L 133.537141 14.406313 L 142.605916 14.406313 L 142.605916 12.555925 L 133.537141 12.555925 L 133.537141 5.778641 L 142.886278 5.778641 L 142.886278 3.961896 L 131.574608 3.961896 L 131.574608 23.000342 Z M 142.886278 23.000342 " stroke="#12706d" stroke-width="0.385" stroke-opacity="1" stroke-miterlimit="4"/><path stroke-linecap="butt" transform="matrix(1.044966, 0, 0, 1.044966, 108.067586, 277.672453)" fill="none" stroke-linejoin="miter" d="M 56.960945 43.175189 L 54.807765 43.175189 C 54.131158 44.405043 53.207833 45.418084 52.034051 46.143287 C 50.85653 46.902134 49.544436 47.264735 48.142627 47.264735 C 46.045519 47.264735 44.254941 46.505889 42.763415 44.9396 C 41.309271 43.455551 40.610235 41.638805 40.610235 39.504316 C 40.610235 37.377303 41.309271 35.560558 42.763415 34.050341 C 43.440022 33.347567 44.254941 32.786844 45.178266 32.36817 C 46.071686 31.949496 46.968844 31.725206 47.862265 31.725206 C 48.733256 31.725206 49.484626 31.833613 50.161233 32.031735 C 52.202268 32.648532 53.742389 33.878386 54.781598 35.75868 L 56.934778 35.75868 C 56.209575 33.960626 55.06196 32.506482 53.462027 31.388772 C 51.843404 30.271062 50.071517 29.710338 48.142627 29.710338 C 45.484795 29.710338 43.241899 30.685998 41.395249 32.622365 C 40.527996 33.515785 39.851389 34.58116 39.380381 35.75868 C 38.875729 36.936201 38.647701 38.192222 38.647701 39.504316 C 38.647701 42.199529 39.54486 44.461116 41.395249 46.367577 C 43.241899 48.330111 45.484795 49.279603 48.142627 49.279603 C 50.071517 49.279603 51.843404 48.718879 53.488195 47.597431 C 55.088127 46.475983 56.235742 45.021839 56.960945 43.175189 Z M 63.293387 42.001407 L 66.766137 33.235423 L 70.205244 42.001407 Z M 75.105971 48.999241 L 66.766137 28.641225 L 58.39266 48.999241 L 60.515934 48.999241 L 62.560708 43.818152 L 70.934185 43.818152 L 72.978958 48.999241 Z M 79.756241 39.594032 L 79.756241 31.833613 L 84.178484 31.833613 C 85.326099 31.833613 86.249424 32.196214 86.952198 32.928894 C 87.625067 33.654097 87.98393 34.547517 87.98393 35.668964 C 87.98393 36.790412 87.625067 37.713738 86.892387 38.472584 C 86.167185 39.223954 85.273764 39.594032 84.178484 39.594032 Z M 89.946464 35.69887 C 89.946464 34.076509 89.333406 32.674699 88.155885 31.583156 C 87.00827 30.521519 85.580294 29.960795 83.898122 29.960795 L 77.793707 29.960795 L 77.793707 48.999241 L 79.756241 48.999241 L 79.756241 41.46685 L 82.025304 41.46685 L 87.625067 48.999241 L 90.256731 48.999241 L 84.376606 41.46685 C 85.860655 41.38461 87.116677 40.850053 88.155885 39.874394 C 89.333406 38.779113 89.946464 37.377303 89.946464 35.69887 Z M 104.648645 48.999241 L 104.648645 47.182496 L 95.29577 47.182496 L 95.29577 40.408951 L 104.368283 40.408951 L 104.368283 38.554824 L 95.29577 38.554824 L 95.29577 31.781279 L 104.648645 31.781279 L 104.648645 29.960795 L 93.333236 29.960795 L 93.333236 48.999241 Z M 104.648645 48.999241 " stroke="#12706d" stroke-width="0.385" stroke-opacity="1" stroke-miterlimit="4"/><g fill="#12706d" fill-opacity="1"><g transform="translate(115.415004, 301.706674)"><g><path d="M 14.015625 0 L 14.015625 -1.90625 L 4.25 -1.90625 L 4.25 -8.984375 L 13.71875 -8.984375 L 13.71875 -10.921875 L 4.25 -10.921875 L 4.25 -18 L 14.015625 -18 L 14.015625 -19.90625 L 2.1875 -19.90625 L 2.1875 0 Z M 14.015625 0 "/></g></g></g><g fill="#12706d" fill-opacity="1"><g transform="translate(131.946441, 301.706674)"><g><path d="M 4.25 -2.046875 L 4.25 -19.90625 L 2.1875 -19.90625 L 2.1875 0 L 11.359375 0 L 11.359375 -2.046875 Z M 4.25 -2.046875 "/></g></g></g><g fill="#12706d" fill-opacity="1"><g transform="translate(144.206027, 301.706674)"><g><path d="M 17.640625 -9.953125 C 17.640625 -11.390625 17.359375 -12.703125 16.828125 -13.9375 C 16.296875 -15.15625 15.5625 -16.21875 14.65625 -17.09375 C 13.71875 -17.96875 12.640625 -18.640625 11.40625 -19.140625 C 10.15625 -19.640625 8.8125 -19.90625 7.40625 -19.90625 L 2.1875 -19.90625 L 2.1875 0 L 7.40625 0 C 8.8125 0 10.15625 -0.234375 11.40625 -0.734375 C 12.640625 -1.234375 13.71875 -1.9375 14.65625 -2.8125 C 15.5625 -3.6875 16.296875 -4.71875 16.828125 -5.9375 C 17.359375 -7.171875 17.640625 -8.484375 17.640625 -9.953125 Z M 15.65625 -9.953125 C 15.65625 -7.671875 14.84375 -5.765625 13.25 -4.265625 C 11.671875 -2.78125 9.75 -2.046875 7.46875 -2.046875 L 4.25 -2.046875 L 4.25 -17.859375 L 7.46875 -17.859375 C 9.75 -17.859375 11.671875 -17.09375 13.25 -15.625 C 14.84375 -14.109375 15.65625 -12.203125 15.65625 -9.953125 Z M 15.65625 -9.953125 "/></g></g></g><g fill="#12706d" fill-opacity="1"><g transform="translate(163.487819, 301.706674)"><g><path d="M 14.015625 0 L 14.015625 -1.90625 L 4.25 -1.90625 L 4.25 -8.984375 L 13.71875 -8.984375 L 13.71875 -10.921875 L 4.25 -10.921875 L 4.25 -18 L 14.015625 -18 L 14.015625 -19.90625 L 2.1875 -19.90625 L 2.1875 0 Z M 14.015625 0 "/></g></g></g><g fill="#12706d" fill-opacity="1"><g transform="translate(180.019254, 301.706674)"><g><path d="M 4.25 -9.828125 L 4.25 -17.9375 L 8.875 -17.9375 C 10.0625 -17.9375 11.03125 -17.5625 11.765625 -16.796875 C 12.46875 -16.03125 12.84375 -15.09375 12.84375 -13.9375 C 12.84375 -12.765625 12.46875 -11.796875 11.703125 -11 C 10.953125 -10.21875 10.015625 -9.828125 8.875 -9.828125 Z M 14.890625 -13.90625 C 14.890625 -15.59375 14.25 -17.0625 13.015625 -18.203125 C 11.828125 -19.3125 10.328125 -19.90625 8.578125 -19.90625 L 2.1875 -19.90625 L 2.1875 0 L 4.25 0 L 4.25 -7.875 L 6.609375 -7.875 L 12.46875 0 L 15.21875 0 L 9.078125 -7.875 C 10.625 -7.953125 11.9375 -8.515625 13.015625 -9.546875 C 14.25 -10.6875 14.890625 -12.140625 14.890625 -13.90625 Z M 14.890625 -13.90625 "/></g></g></g><g fill="#12706d" fill-opacity="1"><g transform="translate(196.258105, 301.706674)"><g><path d="M 18 1.609375 L 22.625 -19.90625 L 20.546875 -19.90625 L 17.4375 -5.4375 L 11.46875 -21.078125 L 5.46875 -5.4375 L 2.40625 -19.90625 L 0.296875 -19.90625 L 4.953125 1.609375 L 11.46875 -15.71875 Z M 18 1.609375 "/></g></g></g><g fill="#12706d" fill-opacity="1"><g transform="translate(219.489881, 301.706674)"><g><path d="M 4.25 0 L 4.25 -19.90625 L 2.1875 -19.90625 L 2.1875 0 Z M 4.25 0 "/></g></g></g><g fill="#12706d" fill-opacity="1"><g transform="translate(226.248741, 301.706674)"><g><path d="M 7.703125 -9.359375 C 10.265625 -8.75 12.03125 -8.078125 12.96875 -7.3125 C 13.609375 -6.796875 13.9375 -6.109375 13.9375 -5.296875 C 13.9375 -4.484375 13.75 -3.796875 13.40625 -3.34375 C 12.53125 -2.109375 10.953125 -1.5 8.71875 -1.5 C 5.625 -1.5 3.859375 -2.546875 3.484375 -4.65625 L 1.078125 -4.65625 C 1.78125 -1.28125 4.328125 0.375 8.71875 0.375 C 10.6875 0.375 12.328125 -0.03125 13.640625 -0.90625 C 15.21875 -1.9375 16.03125 -3.453125 16.03125 -5.4375 C 16.03125 -7.078125 15.390625 -8.34375 14.109375 -9.21875 C 13.203125 -9.859375 11.734375 -10.453125 9.71875 -10.96875 C 7.671875 -11.5 6.34375 -11.9375 5.734375 -12.265625 C 4.390625 -12.9375 3.71875 -13.875 3.75 -15.09375 C 3.75 -15.75 3.859375 -16.296875 4.15625 -16.703125 C 4.921875 -17.859375 6.265625 -18.4375 8.1875 -18.4375 C 10.921875 -18.4375 12.46875 -17.5625 12.875 -15.859375 L 15.09375 -15.859375 C 14.375 -18.734375 12.0625 -20.1875 8.1875 -20.1875 C 6.4375 -20.1875 4.890625 -19.71875 3.59375 -18.78125 C 2.28125 -17.859375 1.609375 -16.46875 1.609375 -14.609375 C 1.609375 -12.0625 3.65625 -10.296875 7.703125 -9.359375 Z M 7.703125 -9.359375 "/></g></g></g><g fill="#12706d" fill-opacity="1"><g transform="translate(243.365355, 301.706674)"><g><path d="M 14.015625 0 L 14.015625 -1.90625 L 4.25 -1.90625 L 4.25 -8.984375 L 13.71875 -8.984375 L 13.71875 -10.921875 L 4.25 -10.921875 L 4.25 -18 L 14.015625 -18 L 14.015625 -19.90625 L 2.1875 -19.90625 L 2.1875 0 Z M 14.015625 0 "/></g></g></g><g fill="#12706d" fill-opacity="1"><g transform="translate(147.139523, 328.875793)"><g><path d="M 20.453125 -6.09375 L 18.203125 -6.09375 C 17.5 -4.796875 16.53125 -3.75 15.3125 -2.984375 C 14.078125 -2.1875 12.703125 -1.8125 11.234375 -1.8125 C 9.046875 -1.8125 7.171875 -2.609375 5.625 -4.25 C 4.09375 -5.796875 3.359375 -7.703125 3.359375 -9.921875 C 3.359375 -12.140625 4.09375 -14.046875 5.625 -15.625 C 6.328125 -16.359375 7.171875 -16.9375 8.140625 -17.390625 C 9.078125 -17.828125 10.015625 -18.0625 10.953125 -18.0625 C 11.859375 -18.0625 12.640625 -17.9375 13.34375 -17.734375 C 15.484375 -17.09375 17.09375 -15.796875 18.171875 -13.84375 L 20.421875 -13.84375 C 19.671875 -15.71875 18.46875 -17.234375 16.796875 -18.40625 C 15.09375 -19.578125 13.25 -20.15625 11.234375 -20.15625 C 8.453125 -20.15625 6.109375 -19.140625 4.1875 -17.125 C 3.28125 -16.1875 2.578125 -15.078125 2.078125 -13.84375 C 1.546875 -12.609375 1.3125 -11.296875 1.3125 -9.921875 C 1.3125 -7.109375 2.25 -4.734375 4.1875 -2.75 C 6.109375 -0.703125 8.453125 0.296875 11.234375 0.296875 C 13.25 0.296875 15.09375 -0.296875 16.828125 -1.46875 C 18.5 -2.640625 19.703125 -4.15625 20.453125 -6.09375 Z M 20.453125 -6.09375 "/></g></g></g><g fill="#12706d" fill-opacity="1"><g transform="translate(168.791303, 328.875793)"><g><path d="M 5.421875 -7.3125 L 9.046875 -16.46875 L 12.640625 -7.3125 Z M 17.765625 0 L 9.046875 -21.28125 L 0.296875 0 L 2.515625 0 L 4.65625 -5.421875 L 13.40625 -5.421875 L 15.546875 0 Z M 17.765625 0 "/></g></g></g><g fill="#12706d" fill-opacity="1"><g transform="translate(187.166069, 328.875793)"><g><path d="M 4.25 -9.828125 L 4.25 -17.9375 L 8.875 -17.9375 C 10.0625 -17.9375 11.03125 -17.5625 11.765625 -16.796875 C 12.46875 -16.03125 12.84375 -15.09375 12.84375 -13.9375 C 12.84375 -12.765625 12.46875 -11.796875 11.703125 -11 C 10.953125 -10.21875 10.015625 -9.828125 8.875 -9.828125 Z M 14.890625 -13.90625 C 14.890625 -15.59375 14.25 -17.0625 13.015625 -18.203125 C 11.828125 -19.3125 10.328125 -19.90625 8.578125 -19.90625 L 2.1875 -19.90625 L 2.1875 0 L 4.25 0 L 4.25 -7.875 L 6.609375 -7.875 L 12.46875 0 L 15.21875 0 L 9.078125 -7.875 C 10.625 -7.953125 11.9375 -8.515625 13.015625 -9.546875 C 14.25 -10.6875 14.890625 -12.140625 14.890625 -13.90625 Z M 14.890625 -13.90625 "/></g></g></g><g fill="#12706d" fill-opacity="1"><g transform="translate(203.404915, 328.875793)"><g><path d="M 14.015625 0 L 14.015625 -1.90625 L 4.25 -1.90625 L 4.25 -8.984375 L 13.71875 -8.984375 L 13.71875 -10.921875 L 4.25 -10.921875 L 4.25 -18 L 14.015625 -18 L 14.015625 -19.90625 L 2.1875 -19.90625 L 2.1875 0 Z M 14.015625 0 "/></g></g></g><g fill="#12706d" fill-opacity="1"><g transform="translate(219.944272, 328.875793)"><g/></g></g><path stroke-linecap="butt" transform="matrix(1.044966, 0, 0, 1.044966, 107.906657, 53.764614)" fill="none" stroke-linejoin="miter" d="M 34.536466 10.893964 C 36.768147 11.424783 38.282102 12.011674 39.100759 12.665852 C 39.654006 13.125645 39.934368 13.70506 39.934368 14.419048 C 39.934368 15.121822 39.781104 15.708713 39.474575 16.112435 C 38.715728 17.174072 37.347562 17.708629 35.426148 17.708629 C 32.734673 17.708629 31.220719 16.800256 30.888023 14.972296 L 28.813344 14.972296 C 29.422664 17.88806 31.620702 19.327252 35.426148 19.327252 C 37.119534 19.327252 38.536297 18.975865 39.680174 18.21328 C 41.04834 17.331075 41.75859 16.011504 41.75859 14.288213 C 41.75859 12.87145 41.194128 11.783646 40.083895 11.021062 C 39.295143 10.467814 38.027907 9.959424 36.285925 9.499631 C 34.510299 9.043575 33.373899 8.666021 32.839342 8.389397 C 31.673036 7.806244 31.089883 6.991326 31.11605 5.92595 C 31.11605 5.368964 31.220719 4.894218 31.474914 4.535355 C 32.129091 3.544743 33.299135 3.043829 34.966354 3.043829 C 37.325133 3.043829 38.667132 3.798937 39.018519 5.271772 L 40.94741 5.271772 C 40.311923 2.793373 38.312007 1.522398 34.966354 1.522398 C 33.448662 1.522398 32.106662 1.92612 30.992691 2.7373 C 29.848814 3.544743 29.265661 4.740954 29.265661 6.359577 C 29.265661 8.561353 31.041287 10.082783 34.536466 10.893964 Z M 54.546834 18.998294 L 54.546834 17.353504 L 46.087379 17.353504 L 46.087379 11.22666 L 54.292639 11.22666 L 54.292639 9.551965 L 46.087379 9.551965 L 46.087379 3.421383 L 54.546834 3.421383 L 54.546834 1.776593 L 44.311753 1.776593 L 44.311753 18.998294 Z M 60.116691 10.490243 L 60.116691 3.469979 L 64.12026 3.469979 C 65.159468 3.469979 65.993078 3.798937 66.628565 4.460592 C 67.237885 5.118508 67.563105 5.92595 67.563105 6.94273 C 67.563105 7.955771 67.237885 8.78938 66.576231 9.477202 C 65.918315 10.157547 65.110872 10.490243 64.12026 10.490243 Z M 69.338731 6.965159 C 69.338731 5.4998 68.781745 4.232564 67.720108 3.241952 C 66.680899 2.284983 65.387496 1.776593 63.866065 1.776593 L 58.344804 1.776593 L 58.344804 18.998294 L 60.116691 18.998294 L 60.116691 12.183629 L 62.172679 12.183629 L 67.237885 18.998294 L 69.619093 18.998294 L 64.299692 12.183629 C 65.641691 12.112604 66.778091 11.630382 67.720108 10.744438 C 68.781745 9.753825 69.338731 8.486589 69.338731 6.965159 Z M 78.306575 20.037502 L 86.104376 1.776593 L 84.182962 1.776593 L 78.306575 15.652641 L 72.400283 1.776593 L 70.478869 1.776593 Z M 90.029443 18.998294 L 90.029443 1.776593 L 88.257556 1.776593 L 88.257556 18.998294 Z M 109.63609 13.731227 L 107.688509 13.731227 C 107.07545 14.845199 106.238103 15.761048 105.176465 16.415226 C 104.11109 17.103047 102.926093 17.428267 101.658857 17.428267 C 99.759872 17.428267 98.137511 16.744184 96.791774 15.327421 C 95.472204 13.985422 94.844193 12.340632 94.844193 10.411742 C 94.844193 8.486589 95.472204 6.841799 96.791774 5.473633 C 97.401094 4.838146 98.137511 4.329756 98.974859 3.95594 C 99.782301 3.578386 100.593482 3.372787 101.404663 3.372787 C 102.189676 3.372787 102.870021 3.469979 103.483079 3.649411 C 105.32973 4.206397 106.724063 5.320368 107.662342 7.021231 L 109.609923 7.021231 C 108.955745 5.395132 107.916536 4.079299 106.469869 3.069996 C 105.00451 2.056955 103.40084 1.548565 101.658857 1.548565 C 99.251483 1.548565 97.221662 2.434509 95.554443 4.183968 C 94.76943 4.99141 94.156371 5.959594 93.730221 7.021231 C 93.270428 8.086606 93.068567 9.223007 93.068567 10.411742 C 93.068567 12.845283 93.879748 14.893795 95.554443 16.620824 C 97.221662 18.392712 99.251483 19.252489 101.658857 19.252489 C 103.40084 19.252489 105.00451 18.747837 106.492298 17.731058 C 107.938965 16.718017 108.978174 15.402184 109.63609 13.731227 Z M 122.529002 18.998294 L 122.529002 17.353504 L 114.065809 17.353504 L 114.065809 11.22666 L 122.274807 11.22666 L 122.274807 9.551965 L 114.065809 9.551965 L 114.065809 3.421383 L 122.529002 3.421383 L 122.529002 1.776593 L 112.293921 1.776593 L 112.293921 18.998294 Z M 122.529002 18.998294 " stroke="#12706d" stroke-width="0.570001" stroke-opacity="1" stroke-miterlimit="4"/><g fill="#12706d" fill-opacity="1"><g transform="translate(137.035087, 73.61897)"><g><path d="M 6.96875 -8.46875 C 9.296875 -7.921875 10.875 -7.3125 11.71875 -6.625 C 12.3125 -6.140625 12.59375 -5.53125 12.59375 -4.796875 C 12.59375 -4.046875 12.4375 -3.4375 12.125 -3.015625 C 11.328125 -1.90625 9.90625 -1.34375 7.890625 -1.34375 C 5.078125 -1.34375 3.5 -2.296875 3.15625 -4.203125 L 0.984375 -4.203125 C 1.609375 -1.171875 3.921875 0.34375 7.890625 0.34375 C 9.65625 0.34375 11.140625 -0.03125 12.328125 -0.828125 C 13.765625 -1.75 14.5 -3.125 14.5 -4.921875 C 14.5 -6.40625 13.921875 -7.546875 12.765625 -8.34375 C 11.9375 -8.921875 10.609375 -9.453125 8.78125 -9.921875 C 6.9375 -10.40625 5.75 -10.796875 5.1875 -11.09375 C 3.96875 -11.703125 3.359375 -12.546875 3.390625 -13.65625 C 3.390625 -14.234375 3.5 -14.75 3.765625 -15.109375 C 4.453125 -16.140625 5.671875 -16.671875 7.40625 -16.671875 C 9.875 -16.671875 11.28125 -15.875 11.640625 -14.34375 L 13.65625 -14.34375 C 13 -16.9375 10.90625 -18.265625 7.40625 -18.265625 C 5.828125 -18.265625 4.421875 -17.84375 3.25 -17 C 2.0625 -16.140625 1.453125 -14.90625 1.453125 -13.203125 C 1.453125 -10.90625 3.3125 -9.3125 6.96875 -8.46875 Z M 6.96875 -8.46875 "/></g></g></g><g fill="#12706d" fill-opacity="1"><g transform="translate(152.227182, 73.61897)"><g><path d="M 12.671875 0 L 12.671875 -1.71875 L 3.84375 -1.71875 L 3.84375 -8.125 L 12.40625 -8.125 L 12.40625 -9.875 L 3.84375 -9.875 L 3.84375 -16.28125 L 12.671875 -16.28125 L 12.671875 -18 L 1.984375 -18 L 1.984375 0 Z M 12.671875 0 "/></g></g></g><g fill="#12706d" fill-opacity="1"><g transform="translate(166.889937, 73.61897)"><g><path d="M 3.84375 -8.890625 L 3.84375 -16.21875 L 8.015625 -16.21875 C 9.109375 -16.21875 9.984375 -15.875 10.640625 -15.1875 C 11.28125 -14.5 11.625 -13.65625 11.625 -12.59375 C 11.625 -11.546875 11.28125 -10.671875 10.59375 -9.953125 C 9.90625 -9.234375 9.046875 -8.890625 8.015625 -8.890625 Z M 13.46875 -12.578125 C 13.46875 -14.109375 12.890625 -15.4375 11.78125 -16.46875 C 10.6875 -17.46875 9.34375 -18 7.75 -18 L 1.984375 -18 L 1.984375 0 L 3.84375 0 L 3.84375 -7.125 L 5.984375 -7.125 L 11.28125 0 L 13.765625 0 L 8.203125 -7.125 C 9.609375 -7.203125 10.796875 -7.703125 11.78125 -8.625 C 12.890625 -9.65625 13.46875 -10.984375 13.46875 -12.578125 Z M 13.46875 -12.578125 "/></g></g></g><g fill="#12706d" fill-opacity="1"><g transform="translate(181.288022, 73.61897)"><g><path d="M 8.4375 1.078125 L 16.59375 -18 L 14.578125 -18 L 8.4375 -3.5 L 2.28125 -18 L 0.265625 -18 Z M 8.4375 1.078125 "/></g></g></g><g fill="#12706d" fill-opacity="1"><g transform="translate(198.14754, 73.61897)"><g><path d="M 3.84375 0 L 3.84375 -18 L 1.984375 -18 L 1.984375 0 Z M 3.84375 0 "/></g></g></g><g fill="#12706d" fill-opacity="1"><g transform="translate(203.970289, 73.61897)"><g><path d="M 18.5 -5.5 L 16.46875 -5.5 C 15.828125 -4.34375 14.953125 -3.390625 13.84375 -2.703125 C 12.734375 -1.984375 11.484375 -1.640625 10.15625 -1.640625 C 8.171875 -1.640625 6.484375 -2.359375 5.078125 -3.84375 C 3.703125 -5.234375 3.046875 -6.96875 3.046875 -8.96875 C 3.046875 -10.984375 3.703125 -12.703125 5.078125 -14.140625 C 5.71875 -14.796875 6.484375 -15.328125 7.359375 -15.71875 C 8.203125 -16.125 9.046875 -16.328125 9.90625 -16.328125 C 10.71875 -16.328125 11.4375 -16.21875 12.0625 -16.046875 C 14 -15.453125 15.453125 -14.296875 16.4375 -12.515625 L 18.46875 -12.515625 C 17.78125 -14.21875 16.703125 -15.59375 15.1875 -16.65625 C 13.65625 -17.703125 11.984375 -18.234375 10.15625 -18.234375 C 7.65625 -18.234375 5.53125 -17.3125 3.78125 -15.484375 C 2.96875 -14.640625 2.328125 -13.625 1.875 -12.515625 C 1.40625 -11.40625 1.1875 -10.21875 1.1875 -8.96875 C 1.1875 -6.4375 2.03125 -4.28125 3.78125 -2.484375 C 5.53125 -0.640625 7.65625 0.265625 10.15625 0.265625 C 11.984375 0.265625 13.65625 -0.265625 15.21875 -1.328125 C 16.734375 -2.375 17.8125 -3.765625 18.5 -5.5 Z M 18.5 -5.5 "/></g></g></g><g fill="#12706d" fill-opacity="1"><g transform="translate(223.264787, 73.61897)"><g><path d="M 12.671875 0 L 12.671875 -1.71875 L 3.84375 -1.71875 L 3.84375 -8.125 L 12.40625 -8.125 L 12.40625 -9.875 L 3.84375 -9.875 L 3.84375 -16.28125 L 12.671875 -16.28125 L 12.671875 -18 L 1.984375 -18 L 1.984375 0 Z M 12.671875 0 "/></g></g></g></svg>